<svg width="19" height="19" viewBox="0 0 19 19" xmlns="http://www.w3.org/2000/svg">
<path d="M17 3H16V3.00098C14.1589 3.00282 12.749 3.01416 11.5967 3.09277C10.421 3.17299 9.56934 3.32028 8.85449 3.57129L8.55566 3.68555C6.48849 4.54189 4.8194 6.1348 3.86621 8.14746L3.68555 8.55566C3.36383 9.33236 3.18445 10.253 3.09277 11.5967C3.01416 12.749 3.00282 14.1589 3.00098 16H3V17H2C2 12.6322 1.99991 10.3116 2.62695 8.52441L2.76074 8.17285C3.71228 5.87571 5.48313 4.02102 7.71973 2.96191L8.17285 2.76074C10.0106 1.99954 12.3406 2 17 2V3Z"/>
</svg>
