<?xml version="1.0" encoding="UTF-8"?>
<svg id="_图层_1" data-name="图层_1" xmlns="http://www.w3.org/2000/svg" version="1.1" xmlns:xlink="http://www.w3.org/1999/xlink" viewBox="0 0 250 250">
  <!-- Generator: Adobe Illustrator 29.2.1, SVG Export Plug-In . SVG Version: 2.1.0 Build 116)  -->
  <defs>
    <style>
      .st0 {
        fill: #fff;
      }

      .st1 {
        filter: url(#drop-shadow-1);
      }

      .st2 {
        fill: #72a6e0;
      }

      .st3 {
        fill: #cae3ff;
      }

      .st4 {
        clip-path: url(#clippath);
      }
    </style>
    <filter id="drop-shadow-1" x="6" y="10" width="238" height="238" filterUnits="userSpaceOnUse">
      <feOffset dx="0" dy="4"/>
      <feGaussianBlur result="blur" stdDeviation="8"/>
      <feFlood flood-color="#000" flood-opacity=".2"/>
      <feComposite in2="blur" operator="in"/>
      <feComposite in="SourceGraphic"/>
    </filter>
    <clipPath id="clippath">
      <path class="st0" d="M125,30c28.8,0,54,0,74.5,20.5,20.5,20.5,20.5,45.7,20.5,74.5s0,54-20.5,74.5c-20.5,20.5-45.7,20.5-74.5,20.5s-54,0-74.5-20.5c-20.5-20.5-20.5-45.7-20.5-74.5s0-54,20.5-74.5c20.5-20.5,45.7-20.5,74.5-20.5Z"/>
    </clipPath>
  </defs>
  <path class="st2" d="M125,0c30.3,0,66.4,0,95.7,29.3,29.3,29.3,29.3,65.4,29.3,95.7s0,66.4-29.3,95.7c-29.3,29.3-65.4,29.3-95.7,29.3s-66.4,0-95.7-29.3C0,191.4,0,155.3,0,125S0,58.6,29.3,29.3,94.7,0,125,0Z"/>
  <g class="st1">
    <path class="st0" d="M125,30c28.8,0,54,0,74.5,20.5,20.5,20.5,20.5,45.7,20.5,74.5s0,54-20.5,74.5c-20.5,20.5-45.7,20.5-74.5,20.5s-54,0-74.5-20.5c-20.5-20.5-20.5-45.7-20.5-74.5s0-54,20.5-74.5c20.5-20.5,45.7-20.5,74.5-20.5Z"/>
    <g class="st4">
      <path class="st3" d="M125,32c28.8,0,54,0,74.5,20.5,20.5,20.5,20.5,45.7,20.5,74.5s0,54-20.5,74.5c-20.5,20.5-45.7,20.5-74.5,20.5s-54,0-74.5-20.5c-20.5-20.5-20.5-45.7-20.5-74.5s0-54,20.5-74.5c20.5-20.5,45.7-20.5,74.5-20.5Z"/>
    </g>
  </g>
</svg>